%TF.GenerationSoftware,KiCad,Pcbnew,9.0.7*%
%TF.CreationDate,2026-03-25T22:06:06+00:00*%
%TF.ProjectId,Keyboard,4b657962-6f61-4726-942e-6b696361645f,v1.0.0*%
%TF.SameCoordinates,Original*%
%TF.FileFunction,Paste,Bot*%
%TF.FilePolarity,Positive*%
%FSLAX46Y46*%
G04 Gerber Fmt 4.6, Leading zero omitted, Abs format (unit mm)*
G04 Created by KiCad (PCBNEW 9.0.7) date 2026-03-25 22:06:06*
%MOMM*%
%LPD*%
G01*
G04 APERTURE LIST*
%ADD10R,0.900000X1.200000*%
%ADD11R,2.550000X2.500000*%
%ADD12R,1.400000X1.000000*%
G04 APERTURE END LIST*
D10*
%TO.C,D14*%
X262350000Y-135500000D03*
X265650000Y-135500000D03*
%TD*%
D11*
%TO.C,SW17*%
X288342000Y-92413000D03*
X275415000Y-94953000D03*
%TD*%
%TO.C,SW42*%
X107842000Y-187420000D03*
X94915000Y-189960000D03*
%TD*%
%TO.C,SW41*%
X126842000Y-149420000D03*
X113915000Y-151960000D03*
%TD*%
%TO.C,SW40*%
X113915000Y-132960000D03*
X126842000Y-130420000D03*
%TD*%
%TO.C,SW39*%
X126842000Y-111420000D03*
X113915000Y-113960000D03*
%TD*%
%TO.C,SW38*%
X126842000Y-92420000D03*
X113915000Y-94960000D03*
%TD*%
%TO.C,SW37*%
X126842000Y-73420000D03*
X113915000Y-75960000D03*
%TD*%
%TO.C,SW36*%
X145842000Y-139920000D03*
X132915000Y-142460000D03*
%TD*%
%TO.C,SW35*%
X145842000Y-120920000D03*
X132915000Y-123460000D03*
%TD*%
%TO.C,SW34*%
X145842000Y-101920000D03*
X132915000Y-104460000D03*
%TD*%
%TO.C,SW33*%
X145842000Y-82920000D03*
X132915000Y-85460000D03*
%TD*%
%TO.C,SW32*%
X145842000Y-63920000D03*
X132915000Y-66460000D03*
%TD*%
%TO.C,SW31*%
X164842000Y-149420000D03*
X151915000Y-151960000D03*
%TD*%
%TO.C,SW30*%
X164842000Y-130420000D03*
X151915000Y-132960000D03*
%TD*%
%TO.C,SW29*%
X164842000Y-111420000D03*
X151915000Y-113960000D03*
%TD*%
%TO.C,SW28*%
X164842000Y-92420000D03*
X151915000Y-94960000D03*
%TD*%
%TO.C,SW27*%
X164842000Y-73420000D03*
X151915000Y-75960000D03*
%TD*%
%TO.C,SW26*%
X183842000Y-168420000D03*
X170915000Y-170960000D03*
%TD*%
%TO.C,SW25*%
X183842000Y-149420000D03*
X170915000Y-151960000D03*
%TD*%
%TO.C,SW24*%
X183842000Y-130420000D03*
X170915000Y-132960000D03*
%TD*%
%TO.C,SW23*%
X183842000Y-111420000D03*
X170915000Y-113960000D03*
%TD*%
%TO.C,SW22*%
X183842000Y-92420000D03*
X170915000Y-94960000D03*
%TD*%
%TO.C,SW21*%
X307342000Y-187420000D03*
X294415000Y-189960000D03*
%TD*%
%TO.C,SW20*%
X288342000Y-149420000D03*
X275415000Y-151960000D03*
%TD*%
%TO.C,SW19*%
X288342000Y-130420000D03*
X275415000Y-132960000D03*
%TD*%
%TO.C,SW18*%
X288342000Y-111420000D03*
X275415000Y-113960000D03*
%TD*%
%TO.C,SW16*%
X288342000Y-73420000D03*
X275415000Y-75960000D03*
%TD*%
%TO.C,SW15*%
X269342000Y-139920000D03*
X256415000Y-142460000D03*
%TD*%
%TO.C,SW14*%
X269342000Y-120920000D03*
X256415000Y-123460000D03*
%TD*%
%TO.C,SW13*%
X269342000Y-101920000D03*
X256415000Y-104460000D03*
%TD*%
%TO.C,SW12*%
X269342000Y-82920000D03*
X256415000Y-85460000D03*
%TD*%
%TO.C,SW11*%
X269342000Y-63920000D03*
X256415000Y-66460000D03*
%TD*%
%TO.C,SW10*%
X250342000Y-149420000D03*
X237415000Y-151960000D03*
%TD*%
%TO.C,SW9*%
X250342000Y-130420000D03*
X237415000Y-132960000D03*
%TD*%
%TO.C,SW8*%
X250342000Y-111420000D03*
X237415000Y-113960000D03*
%TD*%
%TO.C,SW7*%
X250342000Y-92420000D03*
X237415000Y-94960000D03*
%TD*%
%TO.C,SW6*%
X250342000Y-73420000D03*
X237415000Y-75960000D03*
%TD*%
%TO.C,SW5*%
X231342000Y-168420000D03*
X218415000Y-170960000D03*
%TD*%
%TO.C,SW4*%
X231342000Y-149420000D03*
X218415000Y-151960000D03*
%TD*%
%TO.C,SW3*%
X231342000Y-130420000D03*
X218415000Y-132960000D03*
%TD*%
%TO.C,SW2*%
X231342000Y-111420000D03*
X218415000Y-113960000D03*
%TD*%
%TO.C,SW1*%
X231342000Y-92420000D03*
X218415000Y-94960000D03*
%TD*%
D10*
%TO.C,D24*%
X179650000Y-145000000D03*
X176350000Y-145000000D03*
%TD*%
%TO.C,D40*%
X122650000Y-145000000D03*
X119350000Y-145000000D03*
%TD*%
D12*
%TO.C,D59*%
X118300000Y-141000000D03*
X118300000Y-139600000D03*
X123700000Y-139600000D03*
X123700000Y-141000000D03*
%TD*%
D10*
%TO.C,D35*%
X141650000Y-135500000D03*
X138350000Y-135500000D03*
%TD*%
%TO.C,D23*%
X176350000Y-126000000D03*
X179650000Y-126000000D03*
%TD*%
%TO.C,D30*%
X157350000Y-145000000D03*
X160650000Y-145000000D03*
%TD*%
%TO.C,D25*%
X176350000Y-164000000D03*
X179650000Y-164000000D03*
%TD*%
%TO.C,D37*%
X119350000Y-88000000D03*
X122650000Y-88000000D03*
%TD*%
%TO.C,D42*%
X100350000Y-202000000D03*
X103650000Y-202000000D03*
%TD*%
%TO.C,D26*%
X176350000Y-183000000D03*
X179650000Y-183000000D03*
%TD*%
%TO.C,D38*%
X119350000Y-107000000D03*
X122650000Y-107000000D03*
%TD*%
%TO.C,D28*%
X157350000Y-107000000D03*
X160650000Y-107000000D03*
%TD*%
%TO.C,D33*%
X138350000Y-97500000D03*
X141650000Y-97500000D03*
%TD*%
%TO.C,D27*%
X157350000Y-88000000D03*
X160650000Y-88000000D03*
%TD*%
%TO.C,D32*%
X138350000Y-78500000D03*
X141650000Y-78500000D03*
%TD*%
%TO.C,D31*%
X157350000Y-164000000D03*
X160650000Y-164000000D03*
%TD*%
%TO.C,D29*%
X157350000Y-126000000D03*
X160650000Y-126000000D03*
%TD*%
%TO.C,D22*%
X176350000Y-107000000D03*
X179650000Y-107000000D03*
%TD*%
%TO.C,D34*%
X138350000Y-116500000D03*
X141650000Y-116500000D03*
%TD*%
D12*
%TO.C,D83*%
X180700000Y-103000000D03*
X180700000Y-101600000D03*
X175300000Y-101600000D03*
X175300000Y-103000000D03*
%TD*%
%TO.C,D51*%
X180700000Y-179000000D03*
X180700000Y-177600000D03*
X175300000Y-177600000D03*
X175300000Y-179000000D03*
%TD*%
%TO.C,D54*%
X142700000Y-131500000D03*
X142700000Y-130100000D03*
X137300000Y-130100000D03*
X137300000Y-131500000D03*
%TD*%
%TO.C,D65*%
X161700000Y-103000000D03*
X161700000Y-101600000D03*
X156300000Y-101600000D03*
X156300000Y-103000000D03*
%TD*%
%TO.C,D61*%
X142700000Y-112500000D03*
X142700000Y-111100000D03*
X137300000Y-111100000D03*
X137300000Y-112500000D03*
%TD*%
%TO.C,D75*%
X123700000Y-103000000D03*
X123700000Y-101600000D03*
X118300000Y-101600000D03*
X118300000Y-103000000D03*
%TD*%
%TO.C,D43*%
X104700000Y-198000000D03*
X104700000Y-196600000D03*
X99300000Y-196600000D03*
X99300000Y-198000000D03*
%TD*%
%TO.C,D81*%
X161700000Y-84000000D03*
X161700000Y-82600000D03*
X156300000Y-82600000D03*
X156300000Y-84000000D03*
%TD*%
%TO.C,D53*%
X161700000Y-141000000D03*
X161700000Y-139600000D03*
X156300000Y-139600000D03*
X156300000Y-141000000D03*
%TD*%
%TO.C,D48*%
X161700000Y-160000000D03*
X161700000Y-158600000D03*
X156300000Y-158600000D03*
X156300000Y-160000000D03*
%TD*%
%TO.C,D63*%
X180700000Y-141000000D03*
X180700000Y-139600000D03*
X175300000Y-139600000D03*
X175300000Y-141000000D03*
%TD*%
%TO.C,D64*%
X180700000Y-122000000D03*
X180700000Y-120600000D03*
X175300000Y-120600000D03*
X175300000Y-122000000D03*
%TD*%
%TO.C,D79*%
X142700000Y-74500000D03*
X142700000Y-73100000D03*
X137300000Y-73100000D03*
X137300000Y-74500000D03*
%TD*%
%TO.C,D62*%
X161700000Y-122000000D03*
X161700000Y-120600000D03*
X156300000Y-120600000D03*
X156300000Y-122000000D03*
%TD*%
%TO.C,D52*%
X180700000Y-160000000D03*
X180700000Y-158600000D03*
X175300000Y-158600000D03*
X175300000Y-160000000D03*
%TD*%
%TO.C,D66*%
X142700000Y-93500000D03*
X142700000Y-92100000D03*
X137300000Y-92100000D03*
X137300000Y-93500000D03*
%TD*%
%TO.C,D77*%
X123700000Y-84000000D03*
X123700000Y-82600000D03*
X118300000Y-82600000D03*
X118300000Y-84000000D03*
%TD*%
%TO.C,D47*%
X142700000Y-150500000D03*
X142700000Y-149100000D03*
X137300000Y-149100000D03*
X137300000Y-150500000D03*
%TD*%
D10*
%TO.C,D36*%
X138350000Y-154500000D03*
X141650000Y-154500000D03*
%TD*%
%TO.C,D39*%
X119350000Y-126000000D03*
X122650000Y-126000000D03*
%TD*%
D12*
%TO.C,D60*%
X123700000Y-122000000D03*
X123700000Y-120600000D03*
X118300000Y-120600000D03*
X118300000Y-122000000D03*
%TD*%
%TO.C,D45*%
X123700000Y-160000000D03*
X123700000Y-158600000D03*
X118300000Y-158600000D03*
X118300000Y-160000000D03*
%TD*%
D10*
%TO.C,D41*%
X119350000Y-164000000D03*
X122650000Y-164000000D03*
%TD*%
D12*
%TO.C,D97*%
X247200000Y-84000000D03*
X247200000Y-82600000D03*
X241800000Y-82600000D03*
X241800000Y-84000000D03*
%TD*%
%TO.C,D93*%
X285200000Y-84000000D03*
X285200000Y-82600000D03*
X279800000Y-82600000D03*
X279800000Y-84000000D03*
%TD*%
D10*
%TO.C,D11*%
X262350000Y-78500000D03*
X265650000Y-78500000D03*
%TD*%
D12*
%TO.C,D95*%
X266200000Y-74500000D03*
X266200000Y-73100000D03*
X260800000Y-73100000D03*
X260800000Y-74500000D03*
%TD*%
%TO.C,D44*%
X304200000Y-198000000D03*
X304200000Y-196600000D03*
X298800000Y-196600000D03*
X298800000Y-198000000D03*
%TD*%
D10*
%TO.C,D21*%
X299850000Y-201300000D03*
X303150000Y-201300000D03*
%TD*%
D12*
%TO.C,D70*%
X247200000Y-122000000D03*
X247200000Y-120600000D03*
X241800000Y-120600000D03*
X241800000Y-122000000D03*
%TD*%
D10*
%TO.C,D13*%
X262350000Y-116500000D03*
X265650000Y-116500000D03*
%TD*%
D12*
%TO.C,D49*%
X266200000Y-150500000D03*
X266200000Y-149100000D03*
X260800000Y-149100000D03*
X260800000Y-150500000D03*
%TD*%
%TO.C,D74*%
X266200000Y-93500000D03*
X266200000Y-92100000D03*
X260800000Y-92100000D03*
X260800000Y-93500000D03*
%TD*%
%TO.C,D68*%
X285200000Y-122000000D03*
X285200000Y-120600000D03*
X279800000Y-120600000D03*
X279800000Y-122000000D03*
%TD*%
%TO.C,D57*%
X247200000Y-141000000D03*
X247200000Y-139600000D03*
X241800000Y-139600000D03*
X241800000Y-141000000D03*
%TD*%
D10*
%TO.C,D12*%
X262350000Y-97500000D03*
X265650000Y-97500000D03*
%TD*%
%TO.C,D9*%
X243350000Y-145000000D03*
X246650000Y-145000000D03*
%TD*%
%TO.C,D18*%
X281350000Y-126000000D03*
X284650000Y-126000000D03*
%TD*%
%TO.C,D3*%
X223850000Y-145000000D03*
X227150000Y-145000000D03*
%TD*%
D12*
%TO.C,D72*%
X228200000Y-122000000D03*
X228200000Y-120600000D03*
X222800000Y-120600000D03*
X222800000Y-122000000D03*
%TD*%
D10*
%TO.C,D17*%
X281350000Y-107000000D03*
X284650000Y-107000000D03*
%TD*%
%TO.C,D19*%
X281350000Y-145000000D03*
X284650000Y-145000000D03*
%TD*%
D12*
%TO.C,D46*%
X285200000Y-160000000D03*
X285200000Y-158600000D03*
X279800000Y-158600000D03*
X279800000Y-160000000D03*
%TD*%
%TO.C,D50*%
X247200000Y-160000000D03*
X247200000Y-158600000D03*
X241800000Y-158600000D03*
X241800000Y-160000000D03*
%TD*%
%TO.C,D99*%
X228200000Y-103000000D03*
X228200000Y-101600000D03*
X222800000Y-101600000D03*
X222800000Y-103000000D03*
%TD*%
%TO.C,D56*%
X228200000Y-160000000D03*
X228200000Y-158600000D03*
X222800000Y-158600000D03*
X222800000Y-160000000D03*
%TD*%
%TO.C,D71*%
X228200000Y-141000000D03*
X228200000Y-139600000D03*
X222800000Y-139600000D03*
X222800000Y-141000000D03*
%TD*%
%TO.C,D73*%
X247200000Y-103000000D03*
X247200000Y-101600000D03*
X241800000Y-101600000D03*
X241800000Y-103000000D03*
%TD*%
D10*
%TO.C,D15*%
X262350000Y-154500000D03*
X265650000Y-154500000D03*
%TD*%
D12*
%TO.C,D69*%
X266200000Y-112500000D03*
X266200000Y-111100000D03*
X260800000Y-111100000D03*
X260800000Y-112500000D03*
%TD*%
%TO.C,D58*%
X266200000Y-131500000D03*
X266200000Y-130100000D03*
X260800000Y-130100000D03*
X260800000Y-131500000D03*
%TD*%
D10*
%TO.C,D5*%
X223850000Y-183000000D03*
X227150000Y-183000000D03*
%TD*%
%TO.C,D1*%
X223850000Y-107000000D03*
X227150000Y-107000000D03*
%TD*%
%TO.C,D20*%
X281350000Y-164000000D03*
X284650000Y-164000000D03*
%TD*%
D12*
%TO.C,D55*%
X228200000Y-179000000D03*
X228200000Y-177600000D03*
X222800000Y-177600000D03*
X222800000Y-179000000D03*
%TD*%
D10*
%TO.C,D2*%
X223850000Y-126000000D03*
X227150000Y-126000000D03*
%TD*%
%TO.C,D6*%
X243350000Y-88000000D03*
X246650000Y-88000000D03*
%TD*%
%TO.C,D8*%
X243350000Y-126000000D03*
X246650000Y-126000000D03*
%TD*%
%TO.C,D7*%
X243350000Y-107000000D03*
X246650000Y-107000000D03*
%TD*%
%TO.C,D10*%
X243350000Y-164000000D03*
X246650000Y-164000000D03*
%TD*%
D12*
%TO.C,D91*%
X285200000Y-103000000D03*
X285200000Y-101600000D03*
X279800000Y-101600000D03*
X279800000Y-103000000D03*
%TD*%
%TO.C,D67*%
X285200000Y-141000000D03*
X285200000Y-139600000D03*
X279800000Y-139600000D03*
X279800000Y-141000000D03*
%TD*%
D10*
%TO.C,D16*%
X281350000Y-88000000D03*
X284650000Y-88000000D03*
%TD*%
%TO.C,D4*%
X223850000Y-164000000D03*
X227150000Y-164000000D03*
%TD*%
M02*
