%TF.GenerationSoftware,KiCad,Pcbnew,9.0.7*%
%TF.CreationDate,2026-03-25T22:06:07+00:00*%
%TF.ProjectId,Keyboard,4b657962-6f61-4726-942e-6b696361645f,v1.0.0*%
%TF.SameCoordinates,Original*%
%TF.FileFunction,Soldermask,Bot*%
%TF.FilePolarity,Negative*%
%FSLAX46Y46*%
G04 Gerber Fmt 4.6, Leading zero omitted, Abs format (unit mm)*
G04 Created by KiCad (PCBNEW 9.0.7) date 2026-03-25 22:06:07*
%MOMM*%
%LPD*%
G01*
G04 APERTURE LIST*
G04 Aperture macros list*
%AMRoundRect*
0 Rectangle with rounded corners*
0 $1 Rounding radius*
0 $2 $3 $4 $5 $6 $7 $8 $9 X,Y pos of 4 corners*
0 Add a 4 corners polygon primitive as box body*
4,1,4,$2,$3,$4,$5,$6,$7,$8,$9,$2,$3,0*
0 Add four circle primitives for the rounded corners*
1,1,$1+$1,$2,$3*
1,1,$1+$1,$4,$5*
1,1,$1+$1,$6,$7*
1,1,$1+$1,$8,$9*
0 Add four rect primitives between the rounded corners*
20,1,$1+$1,$2,$3,$4,$5,0*
20,1,$1+$1,$4,$5,$6,$7,0*
20,1,$1+$1,$6,$7,$8,$9,0*
20,1,$1+$1,$8,$9,$2,$3,0*%
%AMHorizOval*
0 Thick line with rounded ends*
0 $1 width*
0 $2 $3 position (X,Y) of the first rounded end (center of the circle)*
0 $4 $5 position (X,Y) of the second rounded end (center of the circle)*
0 Add line between two ends*
20,1,$1,$2,$3,$4,$5,0*
0 Add two circle primitives to create the rounded ends*
1,1,$1,$2,$3*
1,1,$1,$4,$5*%
G04 Aperture macros list end*
%ADD10C,1.700000*%
%ADD11RoundRect,0.050000X-0.889000X-0.889000X0.889000X-0.889000X0.889000X0.889000X-0.889000X0.889000X0*%
%ADD12RoundRect,0.050000X-0.450000X-0.600000X0.450000X-0.600000X0.450000X0.600000X-0.450000X0.600000X0*%
%ADD13C,2.005000*%
%ADD14RoundRect,0.050000X-1.275000X-1.250000X1.275000X-1.250000X1.275000X1.250000X-1.275000X1.250000X0*%
%ADD15C,1.801800*%
%ADD16C,3.100000*%
%ADD17C,4.087800*%
%ADD18C,2.300000*%
%ADD19O,2.100000X2.005000*%
%ADD20RoundRect,0.050000X-1.000000X0.952500X-1.000000X-0.952500X1.000000X-0.952500X1.000000X0.952500X0*%
%ADD21C,1.600000*%
%ADD22RoundRect,0.050000X0.750000X-0.750000X0.750000X0.750000X-0.750000X0.750000X-0.750000X-0.750000X0*%
%ADD23RoundRect,0.265625X-0.584375X-0.584375X0.584375X-0.584375X0.584375X0.584375X-0.584375X0.584375X0*%
%ADD24HorizOval,1.300000X-0.061862X-0.267952X0.061862X0.267952X0*%
%ADD25RoundRect,0.270833X-0.516605X-0.552107X0.222293X-0.722695X0.516605X0.552107X-0.222293X0.722695X0*%
%ADD26C,1.800000*%
%ADD27RoundRect,0.050000X0.637006X-1.019423X1.019423X0.637006X-0.637006X1.019423X-1.019423X-0.637006X0*%
%ADD28RoundRect,0.050000X1.008150X-0.654701X0.654701X1.008150X-1.008150X0.654701X-0.654701X-1.008150X0*%
%ADD29RoundRect,0.050000X-0.700000X-0.500000X0.700000X-0.500000X0.700000X0.500000X-0.700000X0.500000X0*%
%ADD30RoundRect,0.775400X-0.613200X-0.909107X0.909107X-0.613200X0.613200X0.909107X-0.909107X0.613200X0*%
%ADD31RoundRect,0.050000X-0.750000X0.750000X-0.750000X-0.750000X0.750000X-0.750000X0.750000X0.750000X0*%
%ADD32RoundRect,0.270833X-0.247380X-0.714497X0.497022X-0.569800X0.247380X0.714497X-0.497022X0.569800X0*%
%ADD33HorizOval,1.300000X-0.052472X0.269947X0.052472X-0.269947X0*%
%ADD34RoundRect,0.775400X-0.919670X-0.597241X0.597241X-0.919670X0.919670X0.597241X-0.597241X0.919670X0*%
G04 APERTURE END LIST*
D10*
%TO.C,R5*%
X140580000Y-174000000D03*
X130420000Y-174000000D03*
%TD*%
D11*
%TO.C,D14*%
X260190000Y-135500000D03*
D12*
X262350000Y-135500000D03*
X265650000Y-135500000D03*
D13*
X267810000Y-135500000D03*
%TD*%
D14*
%TO.C,SW17*%
X288342000Y-92413000D03*
X275415000Y-94953000D03*
D15*
X287580000Y-97493000D03*
D16*
X285040000Y-92413000D03*
D17*
X282500000Y-97493000D03*
D16*
X278690000Y-94953000D03*
D15*
X277420000Y-97493000D03*
%TD*%
D10*
%TO.C,C38*%
X254000000Y-76000000D03*
X254000000Y-81000000D03*
%TD*%
%TO.C,C32*%
X254000000Y-95000000D03*
X254000000Y-100000000D03*
%TD*%
%TO.C,C22*%
X254000000Y-114000000D03*
X254000000Y-119000000D03*
%TD*%
%TO.C,C14*%
X254000000Y-133000000D03*
X254000000Y-138000000D03*
%TD*%
%TO.C,C6*%
X254000000Y-152000000D03*
X254000000Y-157000000D03*
%TD*%
%TO.C,C40*%
X235000000Y-85500000D03*
X235000000Y-90500000D03*
%TD*%
%TO.C,C30*%
X235000000Y-104500000D03*
X235000000Y-109500000D03*
%TD*%
%TO.C,C24*%
X235000000Y-123500000D03*
X235000000Y-128500000D03*
%TD*%
%TO.C,C12*%
X235000000Y-142500000D03*
X235000000Y-147500000D03*
%TD*%
%TO.C,C16*%
X235000000Y-161500000D03*
X235000000Y-166500000D03*
%TD*%
%TO.C,C42*%
X216000000Y-104500000D03*
X216000000Y-109500000D03*
%TD*%
%TO.C,C28*%
X216000000Y-123500000D03*
X216000000Y-128500000D03*
%TD*%
%TO.C,C26*%
X216000000Y-142500000D03*
X216000000Y-147500000D03*
%TD*%
%TO.C,C10*%
X216000000Y-161500000D03*
X216000000Y-166500000D03*
%TD*%
%TO.C,C8*%
X216000000Y-179000000D03*
X216000000Y-184000000D03*
%TD*%
D14*
%TO.C,SW42*%
X107842000Y-187420000D03*
X94915000Y-189960000D03*
D15*
X107080000Y-192500000D03*
D16*
X104540000Y-187420000D03*
D17*
X102000000Y-192500000D03*
D16*
X98190000Y-189960000D03*
D15*
X96920000Y-192500000D03*
%TD*%
D14*
%TO.C,SW41*%
X126842000Y-149420000D03*
X113915000Y-151960000D03*
D15*
X126080000Y-154500000D03*
D16*
X123540000Y-149420000D03*
D17*
X121000000Y-154500000D03*
D16*
X117190000Y-151960000D03*
D15*
X115920000Y-154500000D03*
%TD*%
%TO.C,SW40*%
X115920000Y-135500000D03*
D16*
X117190000Y-132960000D03*
D17*
X121000000Y-135500000D03*
D16*
X123540000Y-130420000D03*
D15*
X126080000Y-135500000D03*
D14*
X113915000Y-132960000D03*
X126842000Y-130420000D03*
%TD*%
%TO.C,SW39*%
X126842000Y-111420000D03*
X113915000Y-113960000D03*
D15*
X126080000Y-116500000D03*
D16*
X123540000Y-111420000D03*
D17*
X121000000Y-116500000D03*
D16*
X117190000Y-113960000D03*
D15*
X115920000Y-116500000D03*
%TD*%
D14*
%TO.C,SW38*%
X126842000Y-92420000D03*
X113915000Y-94960000D03*
D15*
X126080000Y-97500000D03*
D16*
X123540000Y-92420000D03*
D17*
X121000000Y-97500000D03*
D16*
X117190000Y-94960000D03*
D15*
X115920000Y-97500000D03*
%TD*%
D14*
%TO.C,SW37*%
X126842000Y-73420000D03*
X113915000Y-75960000D03*
D15*
X126080000Y-78500000D03*
D16*
X123540000Y-73420000D03*
D17*
X121000000Y-78500000D03*
D16*
X117190000Y-75960000D03*
D15*
X115920000Y-78500000D03*
%TD*%
D14*
%TO.C,SW36*%
X145842000Y-139920000D03*
X132915000Y-142460000D03*
D15*
X145080000Y-145000000D03*
D16*
X142540000Y-139920000D03*
D17*
X140000000Y-145000000D03*
D16*
X136190000Y-142460000D03*
D15*
X134920000Y-145000000D03*
%TD*%
D14*
%TO.C,SW35*%
X145842000Y-120920000D03*
X132915000Y-123460000D03*
D15*
X145080000Y-126000000D03*
D16*
X142540000Y-120920000D03*
D17*
X140000000Y-126000000D03*
D16*
X136190000Y-123460000D03*
D15*
X134920000Y-126000000D03*
%TD*%
D14*
%TO.C,SW34*%
X145842000Y-101920000D03*
X132915000Y-104460000D03*
D15*
X145080000Y-107000000D03*
D16*
X142540000Y-101920000D03*
D17*
X140000000Y-107000000D03*
D16*
X136190000Y-104460000D03*
D15*
X134920000Y-107000000D03*
%TD*%
D14*
%TO.C,SW33*%
X145842000Y-82920000D03*
X132915000Y-85460000D03*
D15*
X145080000Y-88000000D03*
D16*
X142540000Y-82920000D03*
D17*
X140000000Y-88000000D03*
D16*
X136190000Y-85460000D03*
D15*
X134920000Y-88000000D03*
%TD*%
D14*
%TO.C,SW32*%
X145842000Y-63920000D03*
X132915000Y-66460000D03*
D15*
X145080000Y-69000000D03*
D16*
X142540000Y-63920000D03*
D17*
X140000000Y-69000000D03*
D16*
X136190000Y-66460000D03*
D15*
X134920000Y-69000000D03*
%TD*%
D14*
%TO.C,SW31*%
X164842000Y-149420000D03*
X151915000Y-151960000D03*
D15*
X164080000Y-154500000D03*
D16*
X161540000Y-149420000D03*
D17*
X159000000Y-154500000D03*
D16*
X155190000Y-151960000D03*
D15*
X153920000Y-154500000D03*
%TD*%
D14*
%TO.C,SW30*%
X164842000Y-130420000D03*
X151915000Y-132960000D03*
D15*
X164080000Y-135500000D03*
D16*
X161540000Y-130420000D03*
D17*
X159000000Y-135500000D03*
D16*
X155190000Y-132960000D03*
D15*
X153920000Y-135500000D03*
%TD*%
D14*
%TO.C,SW29*%
X164842000Y-111420000D03*
X151915000Y-113960000D03*
D15*
X164080000Y-116500000D03*
D16*
X161540000Y-111420000D03*
D17*
X159000000Y-116500000D03*
D16*
X155190000Y-113960000D03*
D15*
X153920000Y-116500000D03*
%TD*%
D14*
%TO.C,SW28*%
X164842000Y-92420000D03*
X151915000Y-94960000D03*
D15*
X164080000Y-97500000D03*
D16*
X161540000Y-92420000D03*
D17*
X159000000Y-97500000D03*
D16*
X155190000Y-94960000D03*
D15*
X153920000Y-97500000D03*
%TD*%
D14*
%TO.C,SW27*%
X164842000Y-73420000D03*
X151915000Y-75960000D03*
D15*
X164080000Y-78500000D03*
D16*
X161540000Y-73420000D03*
D17*
X159000000Y-78500000D03*
D16*
X155190000Y-75960000D03*
D15*
X153920000Y-78500000D03*
%TD*%
D14*
%TO.C,SW26*%
X183842000Y-168420000D03*
X170915000Y-170960000D03*
D15*
X183080000Y-173500000D03*
D16*
X180540000Y-168420000D03*
D17*
X178000000Y-173500000D03*
D16*
X174190000Y-170960000D03*
D15*
X172920000Y-173500000D03*
%TD*%
D14*
%TO.C,SW25*%
X183842000Y-149420000D03*
X170915000Y-151960000D03*
D15*
X183080000Y-154500000D03*
D16*
X180540000Y-149420000D03*
D17*
X178000000Y-154500000D03*
D16*
X174190000Y-151960000D03*
D15*
X172920000Y-154500000D03*
%TD*%
D14*
%TO.C,SW24*%
X183842000Y-130420000D03*
X170915000Y-132960000D03*
D15*
X183080000Y-135500000D03*
D16*
X180540000Y-130420000D03*
D17*
X178000000Y-135500000D03*
D16*
X174190000Y-132960000D03*
D15*
X172920000Y-135500000D03*
%TD*%
D14*
%TO.C,SW23*%
X183842000Y-111420000D03*
X170915000Y-113960000D03*
D15*
X183080000Y-116500000D03*
D16*
X180540000Y-111420000D03*
D17*
X178000000Y-116500000D03*
D16*
X174190000Y-113960000D03*
D15*
X172920000Y-116500000D03*
%TD*%
D14*
%TO.C,SW22*%
X183842000Y-92420000D03*
X170915000Y-94960000D03*
D15*
X183080000Y-97500000D03*
D16*
X180540000Y-92420000D03*
D17*
X178000000Y-97500000D03*
D16*
X174190000Y-94960000D03*
D15*
X172920000Y-97500000D03*
%TD*%
D14*
%TO.C,SW21*%
X307342000Y-187420000D03*
X294415000Y-189960000D03*
D15*
X306580000Y-192500000D03*
D16*
X304040000Y-187420000D03*
D17*
X301500000Y-192500000D03*
D16*
X297690000Y-189960000D03*
D15*
X296420000Y-192500000D03*
%TD*%
D14*
%TO.C,SW20*%
X288342000Y-149420000D03*
X275415000Y-151960000D03*
D15*
X287580000Y-154500000D03*
D16*
X285040000Y-149420000D03*
D17*
X282500000Y-154500000D03*
D16*
X278690000Y-151960000D03*
D15*
X277420000Y-154500000D03*
%TD*%
D14*
%TO.C,SW19*%
X288342000Y-130420000D03*
X275415000Y-132960000D03*
D15*
X287580000Y-135500000D03*
D16*
X285040000Y-130420000D03*
D17*
X282500000Y-135500000D03*
D16*
X278690000Y-132960000D03*
D15*
X277420000Y-135500000D03*
%TD*%
D14*
%TO.C,SW18*%
X288342000Y-111420000D03*
X275415000Y-113960000D03*
D15*
X287580000Y-116500000D03*
D16*
X285040000Y-111420000D03*
D17*
X282500000Y-116500000D03*
D16*
X278690000Y-113960000D03*
D15*
X277420000Y-116500000D03*
%TD*%
D14*
%TO.C,SW16*%
X288342000Y-73420000D03*
X275415000Y-75960000D03*
D15*
X287580000Y-78500000D03*
D16*
X285040000Y-73420000D03*
D17*
X282500000Y-78500000D03*
D16*
X278690000Y-75960000D03*
D15*
X277420000Y-78500000D03*
%TD*%
D14*
%TO.C,SW15*%
X269342000Y-139920000D03*
X256415000Y-142460000D03*
D15*
X268580000Y-145000000D03*
D16*
X266040000Y-139920000D03*
D17*
X263500000Y-145000000D03*
D16*
X259690000Y-142460000D03*
D15*
X258420000Y-145000000D03*
%TD*%
D14*
%TO.C,SW14*%
X269342000Y-120920000D03*
X256415000Y-123460000D03*
D15*
X268580000Y-126000000D03*
D16*
X266040000Y-120920000D03*
D17*
X263500000Y-126000000D03*
D16*
X259690000Y-123460000D03*
D15*
X258420000Y-126000000D03*
%TD*%
D14*
%TO.C,SW13*%
X269342000Y-101920000D03*
X256415000Y-104460000D03*
D15*
X268580000Y-107000000D03*
D16*
X266040000Y-101920000D03*
D17*
X263500000Y-107000000D03*
D16*
X259690000Y-104460000D03*
D15*
X258420000Y-107000000D03*
%TD*%
D14*
%TO.C,SW12*%
X269342000Y-82920000D03*
X256415000Y-85460000D03*
D15*
X268580000Y-88000000D03*
D16*
X266040000Y-82920000D03*
D17*
X263500000Y-88000000D03*
D16*
X259690000Y-85460000D03*
D15*
X258420000Y-88000000D03*
%TD*%
D14*
%TO.C,SW11*%
X269342000Y-63920000D03*
X256415000Y-66460000D03*
D15*
X268580000Y-69000000D03*
D16*
X266040000Y-63920000D03*
D17*
X263500000Y-69000000D03*
D16*
X259690000Y-66460000D03*
D15*
X258420000Y-69000000D03*
%TD*%
D14*
%TO.C,SW10*%
X250342000Y-149420000D03*
X237415000Y-151960000D03*
D15*
X249580000Y-154500000D03*
D16*
X247040000Y-149420000D03*
D17*
X244500000Y-154500000D03*
D16*
X240690000Y-151960000D03*
D15*
X239420000Y-154500000D03*
%TD*%
D14*
%TO.C,SW9*%
X250342000Y-130420000D03*
X237415000Y-132960000D03*
D15*
X249580000Y-135500000D03*
D16*
X247040000Y-130420000D03*
D17*
X244500000Y-135500000D03*
D16*
X240690000Y-132960000D03*
D15*
X239420000Y-135500000D03*
%TD*%
D14*
%TO.C,SW8*%
X250342000Y-111420000D03*
X237415000Y-113960000D03*
D15*
X249580000Y-116500000D03*
D16*
X247040000Y-111420000D03*
D17*
X244500000Y-116500000D03*
D16*
X240690000Y-113960000D03*
D15*
X239420000Y-116500000D03*
%TD*%
D14*
%TO.C,SW7*%
X250342000Y-92420000D03*
X237415000Y-94960000D03*
D15*
X249580000Y-97500000D03*
D16*
X247040000Y-92420000D03*
D17*
X244500000Y-97500000D03*
D16*
X240690000Y-94960000D03*
D15*
X239420000Y-97500000D03*
%TD*%
D14*
%TO.C,SW6*%
X250342000Y-73420000D03*
X237415000Y-75960000D03*
D15*
X249580000Y-78500000D03*
D16*
X247040000Y-73420000D03*
D17*
X244500000Y-78500000D03*
D16*
X240690000Y-75960000D03*
D15*
X239420000Y-78500000D03*
%TD*%
D14*
%TO.C,SW5*%
X231342000Y-168420000D03*
X218415000Y-170960000D03*
D15*
X230580000Y-173500000D03*
D16*
X228040000Y-168420000D03*
D17*
X225500000Y-173500000D03*
D16*
X221690000Y-170960000D03*
D15*
X220420000Y-173500000D03*
%TD*%
D14*
%TO.C,SW4*%
X231342000Y-149420000D03*
X218415000Y-151960000D03*
D15*
X230580000Y-154500000D03*
D16*
X228040000Y-149420000D03*
D17*
X225500000Y-154500000D03*
D16*
X221690000Y-151960000D03*
D15*
X220420000Y-154500000D03*
%TD*%
D14*
%TO.C,SW3*%
X231342000Y-130420000D03*
X218415000Y-132960000D03*
D15*
X230580000Y-135500000D03*
D16*
X228040000Y-130420000D03*
D17*
X225500000Y-135500000D03*
D16*
X221690000Y-132960000D03*
D15*
X220420000Y-135500000D03*
%TD*%
D14*
%TO.C,SW2*%
X231342000Y-111420000D03*
X218415000Y-113960000D03*
D15*
X230580000Y-116500000D03*
D16*
X228040000Y-111420000D03*
D17*
X225500000Y-116500000D03*
D16*
X221690000Y-113960000D03*
D15*
X220420000Y-116500000D03*
%TD*%
D14*
%TO.C,SW1*%
X231342000Y-92420000D03*
X218415000Y-94960000D03*
D15*
X230580000Y-97500000D03*
D16*
X228040000Y-92420000D03*
D17*
X225500000Y-97500000D03*
D16*
X221690000Y-94960000D03*
D15*
X220420000Y-97500000D03*
%TD*%
D18*
%TO.C,H8*%
X212100000Y-187727000D03*
%TD*%
%TO.C,H7*%
X105500000Y-70000000D03*
%TD*%
%TO.C,H6*%
X318218300Y-207017900D03*
%TD*%
%TO.C,H5*%
X192000000Y-87500000D03*
%TD*%
%TO.C,H4*%
X212100000Y-88374300D03*
%TD*%
%TO.C,H3*%
X192500000Y-188000000D03*
%TD*%
%TO.C,H2*%
X296367900Y-70324100D03*
%TD*%
%TO.C,H1*%
X85000000Y-207500000D03*
%TD*%
D13*
%TO.C,D24*%
X181810000Y-145000000D03*
D12*
X179650000Y-145000000D03*
X176350000Y-145000000D03*
D11*
X174190000Y-145000000D03*
%TD*%
D10*
%TO.C,R6*%
X244000000Y-186500000D03*
X233840000Y-186500000D03*
%TD*%
%TO.C,R1*%
X127463000Y-174000000D03*
X117303000Y-174000000D03*
%TD*%
%TO.C,R4*%
X265920000Y-173000000D03*
X276080000Y-173000000D03*
%TD*%
%TO.C,R2*%
X263080000Y-173000000D03*
X252920000Y-173000000D03*
%TD*%
D19*
%TO.C,Q4*%
X246500000Y-180580000D03*
X246500000Y-178040000D03*
D20*
X246500000Y-175500000D03*
%TD*%
D21*
%TO.C,Q2*%
X254500000Y-177420000D03*
D22*
X254500000Y-182500000D03*
%TD*%
D10*
%TO.C,C46*%
X284500000Y-200000000D03*
D23*
X281000000Y-200000000D03*
%TD*%
D24*
%TO.C,J2*%
X253520940Y-192838502D03*
D25*
X251572200Y-192388600D03*
%TD*%
D26*
%TO.C,SW44*%
X255449800Y-187642752D03*
X252974900Y-187071375D03*
D27*
X250500000Y-186500000D03*
%TD*%
D26*
%TO.C,SW43*%
X131863890Y-190832009D03*
X129379396Y-191360103D03*
D28*
X126894900Y-191888200D03*
%TD*%
D10*
%TO.C,C2*%
X299000000Y-181500000D03*
X304000000Y-181500000D03*
%TD*%
D13*
%TO.C,D40*%
X124810000Y-145000000D03*
D12*
X122650000Y-145000000D03*
X119350000Y-145000000D03*
D11*
X117190000Y-145000000D03*
%TD*%
D10*
%TO.C,C4*%
X273000000Y-161500000D03*
X273000000Y-166500000D03*
%TD*%
D29*
%TO.C,D59*%
X118300000Y-141000000D03*
X118300000Y-139600000D03*
X123700000Y-139600000D03*
X123700000Y-141000000D03*
%TD*%
D13*
%TO.C,D35*%
X143810000Y-135500000D03*
D12*
X141650000Y-135500000D03*
X138350000Y-135500000D03*
D11*
X136190000Y-135500000D03*
%TD*%
D30*
%TO.C,U1*%
X150223999Y-188778308D03*
X150872749Y-192115842D03*
%TD*%
D10*
%TO.C,R3*%
X96420000Y-175000000D03*
X106580000Y-175000000D03*
%TD*%
D20*
%TO.C,Q3*%
X121383000Y-179949600D03*
D19*
X121383000Y-182489600D03*
X121383000Y-185029600D03*
%TD*%
D31*
%TO.C,Q1*%
X130000000Y-179500000D03*
D21*
X130000000Y-184580000D03*
%TD*%
D32*
%TO.C,J1*%
X129441600Y-196810300D03*
D33*
X131404854Y-196428683D03*
%TD*%
D23*
%TO.C,C45*%
X117000000Y-197029600D03*
D10*
X120500000Y-197029600D03*
%TD*%
%TO.C,C41*%
X168500000Y-109500000D03*
X168500000Y-104500000D03*
%TD*%
%TO.C,C39*%
X149500000Y-90500000D03*
X149500000Y-85500000D03*
%TD*%
%TO.C,C37*%
X130500000Y-81000000D03*
X130500000Y-76000000D03*
%TD*%
%TO.C,C36*%
X273000000Y-90500000D03*
X273000000Y-85500000D03*
%TD*%
%TO.C,C35*%
X111500000Y-90500000D03*
X111500000Y-85500000D03*
%TD*%
%TO.C,C34*%
X273000000Y-109500000D03*
X273000000Y-104500000D03*
%TD*%
%TO.C,C33*%
X111500000Y-109500000D03*
X111500000Y-104500000D03*
%TD*%
%TO.C,C31*%
X130500000Y-100000000D03*
X130500000Y-95000000D03*
%TD*%
%TO.C,C29*%
X149500000Y-109500000D03*
X149500000Y-104500000D03*
%TD*%
%TO.C,C27*%
X168500000Y-128500000D03*
X168500000Y-123500000D03*
%TD*%
%TO.C,C25*%
X168500000Y-147500000D03*
X168500000Y-142500000D03*
%TD*%
%TO.C,C23*%
X149500000Y-128500000D03*
X149500000Y-123500000D03*
%TD*%
%TO.C,C21*%
X130500000Y-119000000D03*
X130500000Y-114000000D03*
%TD*%
%TO.C,C20*%
X273000000Y-128500000D03*
X273000000Y-123500000D03*
%TD*%
%TO.C,C19*%
X111500000Y-128500000D03*
X111500000Y-123500000D03*
%TD*%
%TO.C,C18*%
X273000000Y-147500000D03*
X273000000Y-142500000D03*
%TD*%
%TO.C,C17*%
X111500000Y-147500000D03*
X111500000Y-142500000D03*
%TD*%
%TO.C,C15*%
X149500000Y-166500000D03*
X149500000Y-161500000D03*
%TD*%
%TO.C,C13*%
X130500000Y-138000000D03*
X130500000Y-133000000D03*
%TD*%
%TO.C,C11*%
X149500000Y-147500000D03*
X149500000Y-142500000D03*
%TD*%
%TO.C,C9*%
X168500000Y-166500000D03*
X168500000Y-161500000D03*
%TD*%
%TO.C,C7*%
X168500000Y-185500000D03*
X168500000Y-180500000D03*
%TD*%
%TO.C,C5*%
X130500000Y-157000000D03*
X130500000Y-152000000D03*
%TD*%
%TO.C,C3*%
X111500000Y-166500000D03*
X111500000Y-161500000D03*
%TD*%
%TO.C,C1*%
X104000000Y-181500000D03*
X99000000Y-181500000D03*
%TD*%
D11*
%TO.C,D23*%
X174190000Y-126000000D03*
D12*
X176350000Y-126000000D03*
X179650000Y-126000000D03*
D13*
X181810000Y-126000000D03*
%TD*%
D11*
%TO.C,D30*%
X155190000Y-145000000D03*
D12*
X157350000Y-145000000D03*
X160650000Y-145000000D03*
D13*
X162810000Y-145000000D03*
%TD*%
D11*
%TO.C,D25*%
X174190000Y-164000000D03*
D12*
X176350000Y-164000000D03*
X179650000Y-164000000D03*
D13*
X181810000Y-164000000D03*
%TD*%
D11*
%TO.C,D37*%
X117190000Y-88000000D03*
D12*
X119350000Y-88000000D03*
X122650000Y-88000000D03*
D13*
X124810000Y-88000000D03*
%TD*%
D11*
%TO.C,D42*%
X98190000Y-202000000D03*
D12*
X100350000Y-202000000D03*
X103650000Y-202000000D03*
D13*
X105810000Y-202000000D03*
%TD*%
D11*
%TO.C,D26*%
X174190000Y-183000000D03*
D12*
X176350000Y-183000000D03*
X179650000Y-183000000D03*
D13*
X181810000Y-183000000D03*
%TD*%
D11*
%TO.C,D38*%
X117190000Y-107000000D03*
D12*
X119350000Y-107000000D03*
X122650000Y-107000000D03*
D13*
X124810000Y-107000000D03*
%TD*%
D11*
%TO.C,D28*%
X155190000Y-107000000D03*
D12*
X157350000Y-107000000D03*
X160650000Y-107000000D03*
D13*
X162810000Y-107000000D03*
%TD*%
D11*
%TO.C,D33*%
X136190000Y-97500000D03*
D12*
X138350000Y-97500000D03*
X141650000Y-97500000D03*
D13*
X143810000Y-97500000D03*
%TD*%
D11*
%TO.C,D27*%
X155190000Y-88000000D03*
D12*
X157350000Y-88000000D03*
X160650000Y-88000000D03*
D13*
X162810000Y-88000000D03*
%TD*%
D11*
%TO.C,D32*%
X136190000Y-78500000D03*
D12*
X138350000Y-78500000D03*
X141650000Y-78500000D03*
D13*
X143810000Y-78500000D03*
%TD*%
D11*
%TO.C,D31*%
X155190000Y-164000000D03*
D12*
X157350000Y-164000000D03*
X160650000Y-164000000D03*
D13*
X162810000Y-164000000D03*
%TD*%
D11*
%TO.C,D29*%
X155190000Y-126000000D03*
D12*
X157350000Y-126000000D03*
X160650000Y-126000000D03*
D13*
X162810000Y-126000000D03*
%TD*%
D11*
%TO.C,D22*%
X174190000Y-107000000D03*
D12*
X176350000Y-107000000D03*
X179650000Y-107000000D03*
D13*
X181810000Y-107000000D03*
%TD*%
D11*
%TO.C,D34*%
X136190000Y-116500000D03*
D12*
X138350000Y-116500000D03*
X141650000Y-116500000D03*
D13*
X143810000Y-116500000D03*
%TD*%
D29*
%TO.C,D83*%
X180700000Y-103000000D03*
X180700000Y-101600000D03*
X175300000Y-101600000D03*
X175300000Y-103000000D03*
%TD*%
%TO.C,D51*%
X180700000Y-179000000D03*
X180700000Y-177600000D03*
X175300000Y-177600000D03*
X175300000Y-179000000D03*
%TD*%
%TO.C,D54*%
X142700000Y-131500000D03*
X142700000Y-130100000D03*
X137300000Y-130100000D03*
X137300000Y-131500000D03*
%TD*%
%TO.C,D65*%
X161700000Y-103000000D03*
X161700000Y-101600000D03*
X156300000Y-101600000D03*
X156300000Y-103000000D03*
%TD*%
%TO.C,D61*%
X142700000Y-112500000D03*
X142700000Y-111100000D03*
X137300000Y-111100000D03*
X137300000Y-112500000D03*
%TD*%
%TO.C,D75*%
X123700000Y-103000000D03*
X123700000Y-101600000D03*
X118300000Y-101600000D03*
X118300000Y-103000000D03*
%TD*%
%TO.C,D43*%
X104700000Y-198000000D03*
X104700000Y-196600000D03*
X99300000Y-196600000D03*
X99300000Y-198000000D03*
%TD*%
%TO.C,D81*%
X161700000Y-84000000D03*
X161700000Y-82600000D03*
X156300000Y-82600000D03*
X156300000Y-84000000D03*
%TD*%
%TO.C,D53*%
X161700000Y-141000000D03*
X161700000Y-139600000D03*
X156300000Y-139600000D03*
X156300000Y-141000000D03*
%TD*%
%TO.C,D48*%
X161700000Y-160000000D03*
X161700000Y-158600000D03*
X156300000Y-158600000D03*
X156300000Y-160000000D03*
%TD*%
%TO.C,D63*%
X180700000Y-141000000D03*
X180700000Y-139600000D03*
X175300000Y-139600000D03*
X175300000Y-141000000D03*
%TD*%
%TO.C,D64*%
X180700000Y-122000000D03*
X180700000Y-120600000D03*
X175300000Y-120600000D03*
X175300000Y-122000000D03*
%TD*%
%TO.C,D79*%
X142700000Y-74500000D03*
X142700000Y-73100000D03*
X137300000Y-73100000D03*
X137300000Y-74500000D03*
%TD*%
%TO.C,D62*%
X161700000Y-122000000D03*
X161700000Y-120600000D03*
X156300000Y-120600000D03*
X156300000Y-122000000D03*
%TD*%
%TO.C,D52*%
X180700000Y-160000000D03*
X180700000Y-158600000D03*
X175300000Y-158600000D03*
X175300000Y-160000000D03*
%TD*%
%TO.C,D66*%
X142700000Y-93500000D03*
X142700000Y-92100000D03*
X137300000Y-92100000D03*
X137300000Y-93500000D03*
%TD*%
%TO.C,D77*%
X123700000Y-84000000D03*
X123700000Y-82600000D03*
X118300000Y-82600000D03*
X118300000Y-84000000D03*
%TD*%
%TO.C,D47*%
X142700000Y-150500000D03*
X142700000Y-149100000D03*
X137300000Y-149100000D03*
X137300000Y-150500000D03*
%TD*%
D11*
%TO.C,D36*%
X136190000Y-154500000D03*
D12*
X138350000Y-154500000D03*
X141650000Y-154500000D03*
D13*
X143810000Y-154500000D03*
%TD*%
D11*
%TO.C,D39*%
X117190000Y-126000000D03*
D12*
X119350000Y-126000000D03*
X122650000Y-126000000D03*
D13*
X124810000Y-126000000D03*
%TD*%
D29*
%TO.C,D60*%
X123700000Y-122000000D03*
X123700000Y-120600000D03*
X118300000Y-120600000D03*
X118300000Y-122000000D03*
%TD*%
%TO.C,D45*%
X123700000Y-160000000D03*
X123700000Y-158600000D03*
X118300000Y-158600000D03*
X118300000Y-160000000D03*
%TD*%
D11*
%TO.C,D41*%
X117190000Y-164000000D03*
D12*
X119350000Y-164000000D03*
X122650000Y-164000000D03*
D13*
X124810000Y-164000000D03*
%TD*%
D29*
%TO.C,D97*%
X247200000Y-84000000D03*
X247200000Y-82600000D03*
X241800000Y-82600000D03*
X241800000Y-84000000D03*
%TD*%
%TO.C,D93*%
X285200000Y-84000000D03*
X285200000Y-82600000D03*
X279800000Y-82600000D03*
X279800000Y-84000000D03*
%TD*%
D11*
%TO.C,D11*%
X260190000Y-78500000D03*
D12*
X262350000Y-78500000D03*
X265650000Y-78500000D03*
D13*
X267810000Y-78500000D03*
%TD*%
D29*
%TO.C,D95*%
X266200000Y-74500000D03*
X266200000Y-73100000D03*
X260800000Y-73100000D03*
X260800000Y-74500000D03*
%TD*%
%TO.C,D44*%
X304200000Y-198000000D03*
X304200000Y-196600000D03*
X298800000Y-196600000D03*
X298800000Y-198000000D03*
%TD*%
D11*
%TO.C,D21*%
X297690000Y-201300000D03*
D12*
X299850000Y-201300000D03*
X303150000Y-201300000D03*
D13*
X305310000Y-201300000D03*
%TD*%
D29*
%TO.C,D70*%
X247200000Y-122000000D03*
X247200000Y-120600000D03*
X241800000Y-120600000D03*
X241800000Y-122000000D03*
%TD*%
D11*
%TO.C,D13*%
X260190000Y-116500000D03*
D12*
X262350000Y-116500000D03*
X265650000Y-116500000D03*
D13*
X267810000Y-116500000D03*
%TD*%
D29*
%TO.C,D49*%
X266200000Y-150500000D03*
X266200000Y-149100000D03*
X260800000Y-149100000D03*
X260800000Y-150500000D03*
%TD*%
%TO.C,D74*%
X266200000Y-93500000D03*
X266200000Y-92100000D03*
X260800000Y-92100000D03*
X260800000Y-93500000D03*
%TD*%
%TO.C,D68*%
X285200000Y-122000000D03*
X285200000Y-120600000D03*
X279800000Y-120600000D03*
X279800000Y-122000000D03*
%TD*%
%TO.C,D57*%
X247200000Y-141000000D03*
X247200000Y-139600000D03*
X241800000Y-139600000D03*
X241800000Y-141000000D03*
%TD*%
D11*
%TO.C,D12*%
X260190000Y-97500000D03*
D12*
X262350000Y-97500000D03*
X265650000Y-97500000D03*
D13*
X267810000Y-97500000D03*
%TD*%
D11*
%TO.C,D9*%
X241190000Y-145000000D03*
D12*
X243350000Y-145000000D03*
X246650000Y-145000000D03*
D13*
X248810000Y-145000000D03*
%TD*%
D11*
%TO.C,D18*%
X279190000Y-126000000D03*
D12*
X281350000Y-126000000D03*
X284650000Y-126000000D03*
D13*
X286810000Y-126000000D03*
%TD*%
D11*
%TO.C,D3*%
X221690000Y-145000000D03*
D12*
X223850000Y-145000000D03*
X227150000Y-145000000D03*
D13*
X229310000Y-145000000D03*
%TD*%
D29*
%TO.C,D72*%
X228200000Y-122000000D03*
X228200000Y-120600000D03*
X222800000Y-120600000D03*
X222800000Y-122000000D03*
%TD*%
D11*
%TO.C,D17*%
X279190000Y-107000000D03*
D12*
X281350000Y-107000000D03*
X284650000Y-107000000D03*
D13*
X286810000Y-107000000D03*
%TD*%
D11*
%TO.C,D19*%
X279190000Y-145000000D03*
D12*
X281350000Y-145000000D03*
X284650000Y-145000000D03*
D13*
X286810000Y-145000000D03*
%TD*%
D29*
%TO.C,D46*%
X285200000Y-160000000D03*
X285200000Y-158600000D03*
X279800000Y-158600000D03*
X279800000Y-160000000D03*
%TD*%
%TO.C,D50*%
X247200000Y-160000000D03*
X247200000Y-158600000D03*
X241800000Y-158600000D03*
X241800000Y-160000000D03*
%TD*%
%TO.C,D99*%
X228200000Y-103000000D03*
X228200000Y-101600000D03*
X222800000Y-101600000D03*
X222800000Y-103000000D03*
%TD*%
%TO.C,D56*%
X228200000Y-160000000D03*
X228200000Y-158600000D03*
X222800000Y-158600000D03*
X222800000Y-160000000D03*
%TD*%
%TO.C,D71*%
X228200000Y-141000000D03*
X228200000Y-139600000D03*
X222800000Y-139600000D03*
X222800000Y-141000000D03*
%TD*%
%TO.C,D73*%
X247200000Y-103000000D03*
X247200000Y-101600000D03*
X241800000Y-101600000D03*
X241800000Y-103000000D03*
%TD*%
D11*
%TO.C,D15*%
X260190000Y-154500000D03*
D12*
X262350000Y-154500000D03*
X265650000Y-154500000D03*
D13*
X267810000Y-154500000D03*
%TD*%
D29*
%TO.C,D69*%
X266200000Y-112500000D03*
X266200000Y-111100000D03*
X260800000Y-111100000D03*
X260800000Y-112500000D03*
%TD*%
%TO.C,D58*%
X266200000Y-131500000D03*
X266200000Y-130100000D03*
X260800000Y-130100000D03*
X260800000Y-131500000D03*
%TD*%
D11*
%TO.C,D5*%
X221690000Y-183000000D03*
D12*
X223850000Y-183000000D03*
X227150000Y-183000000D03*
D13*
X229310000Y-183000000D03*
%TD*%
D11*
%TO.C,D1*%
X221690000Y-107000000D03*
D12*
X223850000Y-107000000D03*
X227150000Y-107000000D03*
D13*
X229310000Y-107000000D03*
%TD*%
D11*
%TO.C,D20*%
X279190000Y-164000000D03*
D12*
X281350000Y-164000000D03*
X284650000Y-164000000D03*
D13*
X286810000Y-164000000D03*
%TD*%
D29*
%TO.C,D55*%
X228200000Y-179000000D03*
X228200000Y-177600000D03*
X222800000Y-177600000D03*
X222800000Y-179000000D03*
%TD*%
D11*
%TO.C,D2*%
X221690000Y-126000000D03*
D12*
X223850000Y-126000000D03*
X227150000Y-126000000D03*
D13*
X229310000Y-126000000D03*
%TD*%
D11*
%TO.C,D6*%
X241190000Y-88000000D03*
D12*
X243350000Y-88000000D03*
X246650000Y-88000000D03*
D13*
X248810000Y-88000000D03*
%TD*%
D11*
%TO.C,D8*%
X241190000Y-126000000D03*
D12*
X243350000Y-126000000D03*
X246650000Y-126000000D03*
D13*
X248810000Y-126000000D03*
%TD*%
D11*
%TO.C,D7*%
X241190000Y-107000000D03*
D12*
X243350000Y-107000000D03*
X246650000Y-107000000D03*
D13*
X248810000Y-107000000D03*
%TD*%
D11*
%TO.C,D10*%
X241190000Y-164000000D03*
D12*
X243350000Y-164000000D03*
X246650000Y-164000000D03*
D13*
X248810000Y-164000000D03*
%TD*%
D29*
%TO.C,D91*%
X285200000Y-103000000D03*
X285200000Y-101600000D03*
X279800000Y-101600000D03*
X279800000Y-103000000D03*
%TD*%
%TO.C,D67*%
X285200000Y-141000000D03*
X285200000Y-139600000D03*
X279800000Y-139600000D03*
X279800000Y-141000000D03*
%TD*%
D11*
%TO.C,D16*%
X279190000Y-88000000D03*
D12*
X281350000Y-88000000D03*
X284650000Y-88000000D03*
D13*
X286810000Y-88000000D03*
%TD*%
D11*
%TO.C,D4*%
X221690000Y-164000000D03*
D12*
X223850000Y-164000000D03*
X227150000Y-164000000D03*
D13*
X229310000Y-164000000D03*
%TD*%
D34*
%TO.C,U2*%
X271348929Y-192287744D03*
X270642029Y-195613445D03*
%TD*%
M02*
