M48
; DRILL file {KiCad 9.0.7} date 2026-05-02T13:48:20+0100
; FORMAT={-:-/ absolute / metric / decimal}
; #@! TF.CreationDate,2026-05-02T13:48:20+01:00
; #@! TF.GenerationSoftware,Kicad,Pcbnew,9.0.7
; #@! TF.FileFunction,Plated,1,2,PTH
FMAT,2
METRIC
; #@! TA.AperFunction,Plated,PTH,ViaDrill
T1C0.300
; #@! TA.AperFunction,Plated,PTH,ComponentDrill
T2C0.750
; #@! TA.AperFunction,Plated,PTH,ComponentDrill
T3C0.800
; #@! TA.AperFunction,Plated,PTH,ComponentDrill
T4C0.991
; #@! TA.AperFunction,Plated,PTH,ComponentDrill
T5C1.000
; #@! TA.AperFunction,Plated,PTH,ComponentDrill
T6C1.100
; #@! TA.AperFunction,Plated,PTH,ComponentDrill
T7C2.500
%
G90
G05
T1
X106.0Y-195.5
X106.0Y-198.0
X107.0Y-196.5
X108.5Y-197.25
X109.0Y-152.5
X110.5Y-180.0
X111.5Y-152.5
X113.5Y-172.0
X113.5Y-176.0
X114.0Y-180.0
X116.5Y-160.0
X117.0Y-84.0
X117.79Y-99.0
X117.79Y-138.0
X118.418Y-123.018
X122.953Y-137.939
X123.385Y-99.988
X123.5Y-197.0
X123.553Y-138.481
X124.0Y-100.5
X125.0Y-82.5
X125.0Y-84.0
X125.0Y-103.0
X125.0Y-120.5
X125.0Y-122.0
X125.0Y-141.0
X125.0Y-158.5
X125.0Y-160.0
X126.5Y-100.0
X128.0Y-137.0
X134.5Y-91.0
X135.0Y-112.5
X135.5Y-133.0
X135.5Y-150.5
X136.0Y-74.5
X136.79Y-127.5
X137.4Y-94.351
X137.418Y-132.518
X139.0Y-186.0
X139.5Y-188.0
X140.0Y-191.0
X142.049Y-128.649
X142.281Y-166.0
X142.5Y-183.0
X144.0Y-73.0
X144.0Y-74.5
X144.0Y-93.5
X144.0Y-111.0
X144.0Y-112.5
X144.0Y-131.5
X144.0Y-149.0
X144.0Y-150.5
X147.0Y-99.0
X147.22Y-135.78
X151.0Y-99.0
X151.5Y-137.5
X153.5Y-169.0
X153.641Y-144.42
X154.0Y-105.0
X154.0Y-124.0
X154.0Y-160.0
X154.5Y-84.0
X154.5Y-100.0
X154.5Y-122.0
X154.5Y-137.5
X154.5Y-143.0
X154.5Y-161.5
X155.0Y-183.0
X156.418Y-104.018
X156.441Y-148.5
X158.5Y-111.5
X161.5Y-85.5
X163.0Y-82.5
X163.0Y-84.0
X163.0Y-103.0
X163.0Y-122.0
X163.0Y-141.0
X163.0Y-158.5
X163.0Y-160.0
X165.0Y-159.5
X165.481Y-122.481
X165.5Y-156.0
X165.966Y-117.534
X166.064Y-115.936
X167.0Y-106.0
X167.2Y-123.5
X168.5Y-103.0
X173.5Y-141.0
X173.5Y-179.0
X175.4Y-122.851
X175.418Y-161.018
X180.553Y-176.481
X181.0Y-138.5
X186.0Y-146.5
X188.5Y-128.0
X189.5Y-91.0
X189.5Y-108.5
X212.5Y-114.0
X216.0Y-114.0
X217.5Y-98.0
X218.97Y-162.47
X220.5Y-100.5
X221.0Y-122.0
X221.0Y-176.5
X221.0Y-190.0
X225.5Y-166.0
X230.0Y-139.0
X231.5Y-94.5
X231.5Y-114.0
X231.5Y-132.5
X231.5Y-151.5
X231.5Y-170.5
X234.0Y-151.0
X240.0Y-122.5
X240.0Y-141.5
X240.0Y-157.5
X240.5Y-124.5
X241.0Y-166.5
X244.175Y-89.675
X248.47Y-158.47
X249.0Y-82.5
X250.0Y-75.5
X250.0Y-95.0
X250.0Y-133.0
X250.5Y-113.5
X250.5Y-151.5
X251.06Y-124.599
X255.0Y-190.0
X256.5Y-110.5
X256.5Y-114.0
X256.5Y-126.0
X257.436Y-146.564
X257.5Y-148.0
X258.0Y-129.0
X259.0Y-74.5
X259.03Y-77.03
X259.5Y-128.0
X259.53Y-150.53
X259.53Y-152.551
X261.0Y-114.0
X267.0Y-114.5
X267.5Y-111.0
X267.5Y-149.0
X269.0Y-92.75
X269.0Y-94.5
X269.0Y-123.0
X269.0Y-142.0
X269.03Y-130.53
X269.5Y-66.0
X269.5Y-104.0
X270.0Y-85.0
X270.5Y-91.0
X270.97Y-148.47
X271.0Y-127.75
X271.5Y-93.5
X272.0Y-150.0
X272.0Y-153.5
X272.0Y-169.0
X274.5Y-139.5
X274.72Y-106.72
X275.03Y-108.53
X275.5Y-122.5
X275.5Y-201.5
X276.5Y-84.5
X276.5Y-168.5
X276.5Y-196.0
X277.0Y-111.5
X277.0Y-126.5
X277.5Y-118.245
X277.5Y-141.0
X277.5Y-160.0
X278.5Y-167.5
X279.0Y-109.5
X279.5Y-187.5
X279.5Y-189.061
X280.0Y-86.5
X280.5Y-191.0
X281.0Y-187.5
X282.0Y-193.0
X283.5Y-190.5
X286.912Y-187.861
X287.0Y-190.5
X288.5Y-151.5
X289.5Y-142.5
X291.5Y-190.0
T2
X129.442Y-196.81
X131.405Y-196.429
X251.572Y-192.389
X253.521Y-192.839
T3
X96.42Y-175.0
X99.0Y-181.5
X104.0Y-181.5
X106.58Y-175.0
X111.5Y-85.5
X111.5Y-90.5
X111.5Y-104.5
X111.5Y-109.5
X111.5Y-123.5
X111.5Y-128.5
X111.5Y-142.5
X111.5Y-147.5
X111.5Y-161.5
X111.5Y-166.5
X117.0Y-197.03
X117.303Y-174.0
X120.5Y-197.03
X127.463Y-174.0
X130.0Y-179.5
X130.0Y-184.58
X130.42Y-174.0
X130.5Y-76.0
X130.5Y-81.0
X130.5Y-95.0
X130.5Y-100.0
X130.5Y-114.0
X130.5Y-119.0
X130.5Y-133.0
X130.5Y-138.0
X130.5Y-152.0
X130.5Y-157.0
X140.58Y-174.0
X149.5Y-85.5
X149.5Y-90.5
X149.5Y-104.5
X149.5Y-109.5
X149.5Y-123.5
X149.5Y-128.5
X149.5Y-142.5
X149.5Y-147.5
X149.5Y-161.5
X149.5Y-166.5
X168.5Y-104.5
X168.5Y-109.5
X168.5Y-123.5
X168.5Y-128.5
X168.5Y-142.5
X168.5Y-147.5
X168.5Y-161.5
X168.5Y-166.5
X168.5Y-180.5
X168.5Y-185.5
X216.0Y-104.5
X216.0Y-109.5
X216.0Y-123.5
X216.0Y-128.5
X216.0Y-142.5
X216.0Y-147.5
X216.0Y-161.5
X216.0Y-166.5
X216.0Y-179.0
X216.0Y-184.0
X233.84Y-186.5
X235.0Y-85.5
X235.0Y-90.5
X235.0Y-104.5
X235.0Y-109.5
X235.0Y-123.5
X235.0Y-128.5
X235.0Y-142.5
X235.0Y-147.5
X235.0Y-161.5
X235.0Y-166.5
X244.0Y-186.5
X252.92Y-173.0
X254.0Y-76.0
X254.0Y-81.0
X254.0Y-95.0
X254.0Y-100.0
X254.0Y-114.0
X254.0Y-119.0
X254.0Y-133.0
X254.0Y-138.0
X254.0Y-152.0
X254.0Y-157.0
X254.5Y-177.42
X254.5Y-182.5
X263.08Y-173.0
X265.92Y-173.0
X273.0Y-85.5
X273.0Y-90.5
X273.0Y-104.5
X273.0Y-109.5
X273.0Y-123.5
X273.0Y-128.5
X273.0Y-142.5
X273.0Y-147.5
X273.0Y-161.5
X273.0Y-166.5
X276.08Y-173.0
X281.5Y-200.0
X285.0Y-200.0
X299.0Y-181.5
X304.0Y-181.5
T4
X98.19Y-202.0
X105.81Y-202.0
X117.19Y-88.0
X117.19Y-107.0
X117.19Y-126.0
X117.19Y-145.0
X117.19Y-164.0
X124.81Y-88.0
X124.81Y-107.0
X124.81Y-126.0
X124.81Y-145.0
X124.81Y-164.0
X136.19Y-78.5
X136.19Y-97.5
X136.19Y-116.5
X136.19Y-135.5
X136.19Y-154.5
X143.81Y-78.5
X143.81Y-97.5
X143.81Y-116.5
X143.81Y-135.5
X143.81Y-154.5
X155.19Y-88.0
X155.19Y-107.0
X155.19Y-126.0
X155.19Y-145.0
X155.19Y-164.0
X162.81Y-88.0
X162.81Y-107.0
X162.81Y-126.0
X162.81Y-145.0
X162.81Y-164.0
X174.19Y-107.0
X174.19Y-126.0
X174.19Y-145.0
X174.19Y-164.0
X174.19Y-183.0
X181.81Y-107.0
X181.81Y-126.0
X181.81Y-145.0
X181.81Y-164.0
X181.81Y-183.0
X221.69Y-107.0
X221.69Y-126.0
X221.69Y-145.0
X221.69Y-164.0
X221.69Y-183.0
X229.31Y-107.0
X229.31Y-126.0
X229.31Y-145.0
X229.31Y-164.0
X229.31Y-183.0
X241.19Y-88.0
X241.19Y-107.0
X241.19Y-126.0
X241.19Y-145.0
X241.19Y-164.0
X248.81Y-88.0
X248.81Y-107.0
X248.81Y-126.0
X248.81Y-145.0
X248.81Y-164.0
X260.19Y-78.5
X260.19Y-97.5
X260.19Y-116.5
X260.19Y-135.5
X260.19Y-154.5
X267.81Y-78.5
X267.81Y-97.5
X267.81Y-116.5
X267.81Y-135.5
X267.81Y-154.5
X279.19Y-88.0
X279.19Y-107.0
X279.19Y-126.0
X279.19Y-145.0
X279.19Y-164.0
X286.81Y-88.0
X286.81Y-107.0
X286.81Y-126.0
X286.81Y-145.0
X286.81Y-164.0
X297.69Y-201.3
X305.31Y-201.3
T5
X126.895Y-191.888
X129.379Y-191.36
X131.864Y-190.832
X250.5Y-186.5
X252.975Y-187.071
X255.45Y-187.643
T6
X121.383Y-179.95
X121.383Y-182.49
X121.383Y-185.03
X246.5Y-175.5
X246.5Y-178.04
X246.5Y-180.58
T7
X150.224Y-188.778
X150.873Y-192.116
X270.642Y-195.613
X271.349Y-192.288
M30
