%TF.GenerationSoftware,KiCad,Pcbnew,9.0.7*%
%TF.CreationDate,2026-05-02T13:48:25+01:00*%
%TF.ProjectId,Keyboard,4b657962-6f61-4726-942e-6b696361645f,v1.0.0*%
%TF.SameCoordinates,Original*%
%TF.FileFunction,Profile,NP*%
%FSLAX46Y46*%
G04 Gerber Fmt 4.6, Leading zero omitted, Abs format (unit mm)*
G04 Created by KiCad (PCBNEW 9.0.7) date 2026-05-02 13:48:25*
%MOMM*%
%LPD*%
G01*
G04 APERTURE LIST*
%TA.AperFunction,Profile*%
%ADD10C,0.150000*%
%TD*%
%TA.AperFunction,Profile*%
%ADD11C,0.120000*%
%TD*%
G04 APERTURE END LIST*
D10*
X159629098Y-56013035D02*
X178742295Y-71600000D01*
X221079016Y-74600000D02*
X208940021Y-84499448D01*
X261451511Y-49076269D02*
X245259093Y-55212344D01*
X138040633Y-49279683D02*
G75*
G02*
X142048489Y-49076269I2236067J-4472117D01*
G01*
X178742295Y-71600000D02*
X224757705Y-71600000D01*
X290000000Y-206970154D02*
X290000000Y-209300000D01*
X323155643Y-206228710D02*
X301305200Y-69534882D01*
X261451511Y-49076269D02*
G75*
G02*
X265459367Y-49279683I1771789J-4675531D01*
G01*
X211205721Y-192646367D02*
X286313521Y-206300000D01*
X298603949Y-65851974D02*
G75*
G02*
X301305203Y-69534882I-2236049J-4472126D01*
G01*
X158240907Y-55212344D02*
G75*
G02*
X159629095Y-56013038I-1771807J-4675556D01*
G01*
X221079016Y-74600000D02*
X182420984Y-74600000D01*
X113500000Y-209300000D02*
X113500000Y-206970154D01*
X104896051Y-65851974D02*
X138040633Y-49279683D01*
X196400000Y-88374307D02*
X196400000Y-187726991D01*
X243870902Y-56013035D02*
G75*
G02*
X245259092Y-55212340I3159998J-3874865D01*
G01*
X243870902Y-56013035D02*
X224757705Y-71600000D01*
X211205721Y-192646367D02*
G75*
G02*
X207100009Y-187726991I894279J4919367D01*
G01*
X102194800Y-69534882D02*
G75*
G02*
X104896052Y-65851977I4937300J-789218D01*
G01*
X194559979Y-84499448D02*
G75*
G02*
X196399995Y-88374307I-3159979J-3874852D01*
G01*
X80344357Y-206228710D02*
X102194800Y-69534882D01*
X86175955Y-211937314D02*
G75*
G02*
X80344342Y-206228708I-894255J4919414D01*
G01*
X142048489Y-49076269D02*
X158240907Y-55212344D01*
X290000000Y-209300000D02*
X113500000Y-209300000D01*
X207100000Y-88374307D02*
G75*
G02*
X208940018Y-84499444I5000000J7D01*
G01*
X298603949Y-65851974D02*
X265459367Y-49279683D01*
X323155644Y-206228710D02*
G75*
G02*
X317324047Y-211937300I-4937344J-789190D01*
G01*
X113500000Y-206970154D02*
X86175956Y-211937315D01*
X290000000Y-206970154D02*
X317324044Y-211937315D01*
X207100000Y-88374307D02*
X207100000Y-187726991D01*
X117186479Y-206300000D02*
X286313521Y-206300000D01*
X196400000Y-187726990D02*
G75*
G02*
X192294282Y-192646376I-5000000J-10D01*
G01*
X182420984Y-74600000D02*
X194559979Y-84499448D01*
X192294279Y-192646367D02*
X117186479Y-206300000D01*
%TO.C,D58*%
D11*
X261700000Y-129250000D02*
X265300000Y-129250000D01*
X265300000Y-132350000D01*
X261700000Y-132350000D01*
X261700000Y-129250000D01*
%TO.C,D83*%
X176200000Y-100750000D02*
X179800000Y-100750000D01*
X179800000Y-103850000D01*
X176200000Y-103850000D01*
X176200000Y-100750000D01*
%TO.C,D51*%
X176200000Y-176750000D02*
X179800000Y-176750000D01*
X179800000Y-179850000D01*
X176200000Y-179850000D01*
X176200000Y-176750000D01*
%TO.C,D73*%
X242700000Y-100750000D02*
X246300000Y-100750000D01*
X246300000Y-103850000D01*
X242700000Y-103850000D01*
X242700000Y-100750000D01*
%TO.C,D69*%
X261700000Y-110250000D02*
X265300000Y-110250000D01*
X265300000Y-113350000D01*
X261700000Y-113350000D01*
X261700000Y-110250000D01*
%TO.C,D60*%
X119200000Y-119750000D02*
X122800000Y-119750000D01*
X122800000Y-122850000D01*
X119200000Y-122850000D01*
X119200000Y-119750000D01*
%TO.C,D54*%
X138200000Y-129250000D02*
X141800000Y-129250000D01*
X141800000Y-132350000D01*
X138200000Y-132350000D01*
X138200000Y-129250000D01*
%TO.C,D97*%
X242700000Y-81750000D02*
X246300000Y-81750000D01*
X246300000Y-84850000D01*
X242700000Y-84850000D01*
X242700000Y-81750000D01*
%TO.C,D65*%
X157200000Y-100750000D02*
X160800000Y-100750000D01*
X160800000Y-103850000D01*
X157200000Y-103850000D01*
X157200000Y-100750000D01*
%TO.C,D71*%
X223700000Y-138750000D02*
X227300000Y-138750000D01*
X227300000Y-141850000D01*
X223700000Y-141850000D01*
X223700000Y-138750000D01*
%TO.C,D61*%
X138200000Y-110250000D02*
X141800000Y-110250000D01*
X141800000Y-113350000D01*
X138200000Y-113350000D01*
X138200000Y-110250000D01*
%TO.C,D56*%
X223700000Y-157750000D02*
X227300000Y-157750000D01*
X227300000Y-160850000D01*
X223700000Y-160850000D01*
X223700000Y-157750000D01*
%TO.C,D75*%
X119200000Y-100750000D02*
X122800000Y-100750000D01*
X122800000Y-103850000D01*
X119200000Y-103850000D01*
X119200000Y-100750000D01*
%TO.C,D43*%
X100200000Y-195750000D02*
X103800000Y-195750000D01*
X103800000Y-198850000D01*
X100200000Y-198850000D01*
X100200000Y-195750000D01*
%TO.C,D46*%
X280700000Y-157750000D02*
X284300000Y-157750000D01*
X284300000Y-160850000D01*
X280700000Y-160850000D01*
X280700000Y-157750000D01*
%TO.C,D81*%
X157200000Y-81750000D02*
X160800000Y-81750000D01*
X160800000Y-84850000D01*
X157200000Y-84850000D01*
X157200000Y-81750000D01*
%TO.C,D68*%
X280700000Y-119750000D02*
X284300000Y-119750000D01*
X284300000Y-122850000D01*
X280700000Y-122850000D01*
X280700000Y-119750000D01*
%TO.C,D72*%
X223700000Y-119750000D02*
X227300000Y-119750000D01*
X227300000Y-122850000D01*
X223700000Y-122850000D01*
X223700000Y-119750000D01*
%TO.C,D55*%
X223700000Y-176750000D02*
X227300000Y-176750000D01*
X227300000Y-179850000D01*
X223700000Y-179850000D01*
X223700000Y-176750000D01*
%TO.C,D67*%
X280700000Y-138750000D02*
X284300000Y-138750000D01*
X284300000Y-141850000D01*
X280700000Y-141850000D01*
X280700000Y-138750000D01*
%TO.C,D44*%
X299700000Y-195750000D02*
X303300000Y-195750000D01*
X303300000Y-198850000D01*
X299700000Y-198850000D01*
X299700000Y-195750000D01*
%TO.C,D74*%
X261700000Y-91250000D02*
X265300000Y-91250000D01*
X265300000Y-94350000D01*
X261700000Y-94350000D01*
X261700000Y-91250000D01*
%TO.C,D59*%
X119200000Y-138750000D02*
X122800000Y-138750000D01*
X122800000Y-141850000D01*
X119200000Y-141850000D01*
X119200000Y-138750000D01*
%TO.C,D53*%
X157200000Y-138750000D02*
X160800000Y-138750000D01*
X160800000Y-141850000D01*
X157200000Y-141850000D01*
X157200000Y-138750000D01*
%TO.C,D48*%
X157200000Y-157750000D02*
X160800000Y-157750000D01*
X160800000Y-160850000D01*
X157200000Y-160850000D01*
X157200000Y-157750000D01*
%TO.C,D57*%
X242700000Y-138750000D02*
X246300000Y-138750000D01*
X246300000Y-141850000D01*
X242700000Y-141850000D01*
X242700000Y-138750000D01*
%TO.C,D49*%
X261700000Y-148250000D02*
X265300000Y-148250000D01*
X265300000Y-151350000D01*
X261700000Y-151350000D01*
X261700000Y-148250000D01*
%TO.C,D47*%
X138200000Y-148250000D02*
X141800000Y-148250000D01*
X141800000Y-151350000D01*
X138200000Y-151350000D01*
X138200000Y-148250000D01*
%TO.C,D63*%
X176200000Y-138750000D02*
X179800000Y-138750000D01*
X179800000Y-141850000D01*
X176200000Y-141850000D01*
X176200000Y-138750000D01*
%TO.C,D64*%
X176200000Y-119750000D02*
X179800000Y-119750000D01*
X179800000Y-122850000D01*
X176200000Y-122850000D01*
X176200000Y-119750000D01*
%TO.C,D95*%
X261700000Y-72250000D02*
X265300000Y-72250000D01*
X265300000Y-75350000D01*
X261700000Y-75350000D01*
X261700000Y-72250000D01*
%TO.C,D79*%
X138200000Y-72250000D02*
X141800000Y-72250000D01*
X141800000Y-75350000D01*
X138200000Y-75350000D01*
X138200000Y-72250000D01*
%TO.C,D50*%
X242700000Y-157750000D02*
X246300000Y-157750000D01*
X246300000Y-160850000D01*
X242700000Y-160850000D01*
X242700000Y-157750000D01*
%TO.C,D70*%
X242700000Y-119750000D02*
X246300000Y-119750000D01*
X246300000Y-122850000D01*
X242700000Y-122850000D01*
X242700000Y-119750000D01*
%TO.C,D91*%
X280700000Y-100750000D02*
X284300000Y-100750000D01*
X284300000Y-103850000D01*
X280700000Y-103850000D01*
X280700000Y-100750000D01*
%TO.C,D62*%
X157200000Y-119750000D02*
X160800000Y-119750000D01*
X160800000Y-122850000D01*
X157200000Y-122850000D01*
X157200000Y-119750000D01*
%TO.C,D99*%
X223700000Y-100750000D02*
X227300000Y-100750000D01*
X227300000Y-103850000D01*
X223700000Y-103850000D01*
X223700000Y-100750000D01*
%TO.C,D52*%
X176200000Y-157750000D02*
X179800000Y-157750000D01*
X179800000Y-160850000D01*
X176200000Y-160850000D01*
X176200000Y-157750000D01*
%TO.C,D45*%
X119200000Y-157750000D02*
X122800000Y-157750000D01*
X122800000Y-160850000D01*
X119200000Y-160850000D01*
X119200000Y-157750000D01*
%TO.C,D93*%
X280700000Y-81750000D02*
X284300000Y-81750000D01*
X284300000Y-84850000D01*
X280700000Y-84850000D01*
X280700000Y-81750000D01*
%TO.C,D66*%
X138200000Y-91250000D02*
X141800000Y-91250000D01*
X141800000Y-94350000D01*
X138200000Y-94350000D01*
X138200000Y-91250000D01*
%TO.C,D77*%
X119200000Y-81750000D02*
X122800000Y-81750000D01*
X122800000Y-84850000D01*
X119200000Y-84850000D01*
X119200000Y-81750000D01*
%TD*%
M02*
