M48
; DRILL file {KiCad 9.0.7} date 2026-05-02T13:48:20+0100
; FORMAT={-:-/ absolute / metric / decimal}
; #@! TF.CreationDate,2026-05-02T13:48:20+01:00
; #@! TF.GenerationSoftware,Kicad,Pcbnew,9.0.7
; #@! TF.FileFunction,NonPlated,1,2,NPTH
FMAT,2
METRIC
; #@! TA.AperFunction,NonPlated,NPTH,ComponentDrill
T1C1.702
; #@! TA.AperFunction,NonPlated,NPTH,ComponentDrill
T2C2.200
; #@! TA.AperFunction,NonPlated,NPTH,ComponentDrill
T3C3.000
; #@! TA.AperFunction,NonPlated,NPTH,ComponentDrill
T4C3.988
%
G90
G05
T1
X96.92Y-192.5
X107.08Y-192.5
X115.92Y-78.5
X115.92Y-97.5
X115.92Y-116.5
X115.92Y-135.5
X115.92Y-154.5
X126.08Y-78.5
X126.08Y-97.5
X126.08Y-116.5
X126.08Y-135.5
X126.08Y-154.5
X134.92Y-69.0
X134.92Y-88.0
X134.92Y-107.0
X134.92Y-126.0
X134.92Y-145.0
X145.08Y-69.0
X145.08Y-88.0
X145.08Y-107.0
X145.08Y-126.0
X145.08Y-145.0
X153.92Y-78.5
X153.92Y-97.5
X153.92Y-116.5
X153.92Y-135.5
X153.92Y-154.5
X164.08Y-78.5
X164.08Y-97.5
X164.08Y-116.5
X164.08Y-135.5
X164.08Y-154.5
X172.92Y-97.5
X172.92Y-116.5
X172.92Y-135.5
X172.92Y-154.5
X172.92Y-173.5
X183.08Y-97.5
X183.08Y-116.5
X183.08Y-135.5
X183.08Y-154.5
X183.08Y-173.5
X220.42Y-97.5
X220.42Y-116.5
X220.42Y-135.5
X220.42Y-154.5
X220.42Y-173.5
X230.58Y-97.5
X230.58Y-116.5
X230.58Y-135.5
X230.58Y-154.5
X230.58Y-173.5
X239.42Y-78.5
X239.42Y-97.5
X239.42Y-116.5
X239.42Y-135.5
X239.42Y-154.5
X249.58Y-78.5
X249.58Y-97.5
X249.58Y-116.5
X249.58Y-135.5
X249.58Y-154.5
X258.42Y-69.0
X258.42Y-88.0
X258.42Y-107.0
X258.42Y-126.0
X258.42Y-145.0
X268.58Y-69.0
X268.58Y-88.0
X268.58Y-107.0
X268.58Y-126.0
X268.58Y-145.0
X277.42Y-78.5
X277.42Y-97.493
X277.42Y-116.5
X277.42Y-135.5
X277.42Y-154.5
X287.58Y-78.5
X287.58Y-97.493
X287.58Y-116.5
X287.58Y-135.5
X287.58Y-154.5
X296.42Y-192.5
X306.58Y-192.5
T2
X85.0Y-207.5
X105.5Y-70.0
X192.0Y-87.5
X192.5Y-188.0
X212.1Y-88.374
X212.1Y-187.727
X296.368Y-70.324
X318.218Y-207.018
T3
X98.19Y-189.96
X104.54Y-187.42
X117.19Y-75.96
X117.19Y-94.96
X117.19Y-113.96
X117.19Y-132.96
X117.19Y-151.96
X123.54Y-73.42
X123.54Y-92.42
X123.54Y-111.42
X123.54Y-130.42
X123.54Y-149.42
X136.19Y-66.46
X136.19Y-85.46
X136.19Y-104.46
X136.19Y-123.46
X136.19Y-142.46
X142.54Y-63.92
X142.54Y-82.92
X142.54Y-101.92
X142.54Y-120.92
X142.54Y-139.92
X155.19Y-75.96
X155.19Y-94.96
X155.19Y-113.96
X155.19Y-132.96
X155.19Y-151.96
X161.54Y-73.42
X161.54Y-92.42
X161.54Y-111.42
X161.54Y-130.42
X161.54Y-149.42
X174.19Y-94.96
X174.19Y-113.96
X174.19Y-132.96
X174.19Y-151.96
X174.19Y-170.96
X180.54Y-92.42
X180.54Y-111.42
X180.54Y-130.42
X180.54Y-149.42
X180.54Y-168.42
X221.69Y-94.96
X221.69Y-113.96
X221.69Y-132.96
X221.69Y-151.96
X221.69Y-170.96
X228.04Y-92.42
X228.04Y-111.42
X228.04Y-130.42
X228.04Y-149.42
X228.04Y-168.42
X240.69Y-75.96
X240.69Y-94.96
X240.69Y-113.96
X240.69Y-132.96
X240.69Y-151.96
X247.04Y-73.42
X247.04Y-92.42
X247.04Y-111.42
X247.04Y-130.42
X247.04Y-149.42
X259.69Y-66.46
X259.69Y-85.46
X259.69Y-104.46
X259.69Y-123.46
X259.69Y-142.46
X266.04Y-63.92
X266.04Y-82.92
X266.04Y-101.92
X266.04Y-120.92
X266.04Y-139.92
X278.69Y-75.96
X278.69Y-94.953
X278.69Y-113.96
X278.69Y-132.96
X278.69Y-151.96
X285.04Y-73.42
X285.04Y-92.413
X285.04Y-111.42
X285.04Y-130.42
X285.04Y-149.42
X297.69Y-189.96
X304.04Y-187.42
T4
X102.0Y-192.5
X121.0Y-78.5
X121.0Y-97.5
X121.0Y-116.5
X121.0Y-135.5
X121.0Y-154.5
X140.0Y-69.0
X140.0Y-88.0
X140.0Y-107.0
X140.0Y-126.0
X140.0Y-145.0
X159.0Y-78.5
X159.0Y-97.5
X159.0Y-116.5
X159.0Y-135.5
X159.0Y-154.5
X178.0Y-97.5
X178.0Y-116.5
X178.0Y-135.5
X178.0Y-154.5
X178.0Y-173.5
X225.5Y-97.5
X225.5Y-116.5
X225.5Y-135.5
X225.5Y-154.5
X225.5Y-173.5
X244.5Y-78.5
X244.5Y-97.5
X244.5Y-116.5
X244.5Y-135.5
X244.5Y-154.5
X263.5Y-69.0
X263.5Y-88.0
X263.5Y-107.0
X263.5Y-126.0
X263.5Y-145.0
X282.5Y-78.5
X282.5Y-97.493
X282.5Y-116.5
X282.5Y-135.5
X282.5Y-154.5
X301.5Y-192.5
M30
